<?xml version="1.0" encoding="UTF-8"?>
<svg id="_Слой_2" data-name="Слой 2" xmlns="http://www.w3.org/2000/svg" viewBox="0 0 184.08 170.01">
  <defs>
    <style>
      .cls-1, .cls-2, .cls-3 {
        fill: #ffbbf2;
      }

      .cls-1, .cls-4 {
        stroke-width: 0px;
      }

      .cls-5, .cls-6, .cls-7, .cls-8, .cls-9, .cls-10, .cls-2, .cls-11, .cls-12, .cls-3, .cls-13 {
        stroke: #000;
      }

      .cls-5, .cls-9 {
        stroke-linecap: round;
        stroke-linejoin: round;
      }

      .cls-5, .cls-10, .cls-11 {
        fill: #45ddff;
      }

      .cls-6 {
        fill: none;
      }

      .cls-6, .cls-7, .cls-8, .cls-10, .cls-2, .cls-11, .cls-12, .cls-3, .cls-13 {
        stroke-miterlimit: 10;
      }

      .cls-7, .cls-10, .cls-3 {
        stroke-width: .5px;
      }

      .cls-7, .cls-4, .cls-12 {
        fill: #fff;
      }

      .cls-8 {
        stroke-width: .25px;
      }

      .cls-13 {
        fill: red;
      }
    </style>
  </defs>
  <g id="_Слой_19" data-name="Слой 19">
    <g>
      <ellipse class="cls-11" cx="85.6" cy="161.45" rx="11.1" ry="6.05"/>
      <ellipse class="cls-11" cx="39.03" cy="161.82" rx="14.08" ry="7.68"/>
      <path class="cls-11" d="m83.33,17.93s0-9.72,5.4-12.96c6.68-4.01,14.04-5.4,22.68,0,4.68,2.92,15.12,12.96,10.3,22.14-5.1,9.7-16.78,13.5-18.94,10.26-5.9-8.85-19.44-19.44-19.44-19.44Z"/>
      <path class="cls-2" d="m89.81,23.33s-.14-10.21,2.16-11.88c3.94-2.86,16.17-2.52,19.44,1.08,2.39,2.63,3.95,10.97,2.16,14.04-1.85,3.18-15.12,5.4-15.12,5.4"/>
      <g>
        <path class="cls-11" d="m40.85,18.21s.67-8.92-4.32-12.76C30.36.71,23.21-1.52,14.01,2.85,9.02,5.21-2.5,13.98,1.23,23.65c3.95,10.22,18.46,12.62,19.38,11.4,6.48-8.64,20.24-16.84,20.24-16.84Z"/>
        <path class="cls-2" d="m35.21,21.35s.25-9.35-1.89-11.23c-3.66-3.21-15.87-3.97-19.46-.68-2.61,2.4-4.92,10.57-3.42,13.79,1.56,3.34,13.41,6.49,13.41,6.49"/>
      </g>
      <path class="cls-11" d="m112.8,73.01c0,36.62,10.19,90.95-50.85,89.18C-7.01,160.19,6.34,107.6,6.34,73.01,6.34,31.18,41.38,13.85,59.79,13.85c26,0,53.01,13.72,53.01,59.15Z"/>
      <path class="cls-12" d="m92.62,124c0,14.36-8.1,26-25.5,26s-24.5-10.64-24.5-25,7.1-27,24.5-27,25.5,11.64,25.5,26Z"/>
      <ellipse class="cls-8" cx="40.67" cy="54.11" rx="4.86" ry="15.66"/>
      <ellipse class="cls-8" cx="88.47" cy="54.11" rx="4.86" ry="15.66"/>
      <path class="cls-8" d="m67.62,79.5c-1.08-1.08-9.81-5.82-8.64-8.64,1.61-3.9,15.71-4.05,16.87,0,.82,2.87-8.23,8.64-8.23,8.64Z"/>
      <path class="cls-11" d="m46.62,84s15.28,8.76,18.84,7.38c.79-.31,2.16-2.63,2.16-2.63v-9.25"/>
      <path class="cls-11" d="m67.62,88.75s1.42,2.29,2.21,2.63c4.1,1.73,11.79-2.38,11.79-2.38"/>
      <path class="cls-4" d="m72.26,72.65c1.93,0,1.93-3,0-3s-1.93,3,0,3h0Z"/>
      <path class="cls-4" d="m42.28,44.84c1.93,0,1.93-3,0-3s-1.93,3,0,3h0Z"/>
      <path class="cls-4" d="m43.9,44.74c-.09.11-.19.21-.3.3,0,0-.05.04,0,0,.05-.04-.02.01-.02.01-.03.02-.05.04-.08.06-.06.04-.12.08-.19.11-.06.03-.12.06-.19.09-.05.02.07-.03.02,0-.02,0-.04.01-.06.02-.03.01-.06.02-.09.03-.07.02-.14.04-.21.06-.03,0-.06.01-.1.02-.02,0-.04,0-.06,0-.05,0,.1-.01.01,0-.1.01-.19.03-.27.11-.07.07-.11.17-.11.27,0,.18.17.4.38.38.69-.08,1.35-.4,1.8-.93.13-.15.16-.39,0-.53-.14-.13-.4-.16-.53,0h0Z"/>
      <ellipse class="cls-1" cx="91.97" cy="76.95" rx="9.72" ry="5.94"/>
      <ellipse class="cls-1" cx="27.33" cy="75.79" rx="9.72" ry="5.94"/>
      <path class="cls-4" d="m89.91,44.48c1.93,0,1.93-3,0-3s-1.93,3,0,3h0Z"/>
      <path class="cls-4" d="m91.53,44.38c-.09.11-.19.21-.3.3,0,0-.05.04,0,0,.05-.04-.02.01-.02.01-.03.02-.05.04-.08.06-.06.04-.12.08-.19.11-.06.03-.12.06-.19.09-.05.02.07-.03.02,0-.02,0-.04.01-.06.02-.03.01-.06.02-.09.03-.07.02-.14.04-.21.06-.03,0-.06.01-.1.02-.02,0-.04,0-.06,0-.05,0,.1-.01.01,0-.1.01-.19.03-.27.11-.07.07-.11.17-.11.27,0,.18.17.4.38.38.69-.08,1.35-.4,1.8-.93.13-.15.16-.39,0-.53-.14-.13-.4-.16-.53,0h0Z"/>
      <path class="cls-11" d="m32.07,107.19s31.27,23.96,29,26.99c-.97,1.29-33.87-12.51-33.87-12.51"/>
      <path class="cls-11" d="m108.39,107.69s97.6,7.02,70.4-30.83c-23-32-75.72,16.51-75.72,16.51"/>
      <g>
        <polygon class="cls-5" points="171.79 97.85 138.79 107.85 138.79 42.85 171.79 35.85 171.79 97.85"/>
        <path class="cls-13" d="m159.79,96.85c0,1.66-1.34,3-3,3s-4-1.34-4-3,2.34-3,4-3,3,1.34,3,3Z"/>
      </g>
      <polygon class="cls-9" points="138.79 107.85 135.79 105.85 135.79 40.85 138.79 42.85 138.79 107.85"/>
      <polygon class="cls-9" points="168.79 34.85 171.79 35.85 138.79 42.85 135.79 40.85 168.79 34.85"/>
      <ellipse class="cls-10" cx="161.93" cy="85.32" rx="2.79" ry="1.52"/>
      <ellipse class="cls-10" cx="150.22" cy="85.42" rx="3.54" ry="1.93"/>
      <g>
        <path class="cls-10" d="m150.43,48.81s.17-2.24-1.09-3.21c-1.55-1.19-3.35-1.75-5.66-.66-1.25.6-4.15,2.8-3.21,5.23.99,2.57,4.64,3.17,4.87,2.87,1.63-2.17,5.09-4.23,5.09-4.23Z"/>
        <path class="cls-3" d="m149.01,49.85s.06-2.35-.48-2.82c-.92-.81-3.99-1-4.89-.17-.66.6-1.24,2.66-.86,3.47s3.37,1.63,3.37,1.63"/>
      </g>
      <g>
        <path class="cls-10" d="m161.36,49.24s0-2.44,1.36-3.26c1.68-1.01,3.53-1.36,5.7,0,1.18.74,3.8,3.26,2.59,5.57-1.28,2.44-4.22,3.4-4.76,2.58-1.48-2.23-4.89-4.89-4.89-4.89Z"/>
        <path class="cls-3" d="m162.99,50.6s-.04-2.57.54-2.99c.99-.72,4.07-.63,4.89.27.6.66.99,2.76.54,3.53s-3.8,1.36-3.8,1.36"/>
      </g>
      <path class="cls-10" d="m168.77,63.09c0,9.21,2.56,22.87-12.78,22.42-17.34-.5-13.98-13.72-13.98-22.42,0-10.52,8.76-15.75,13.38-15.75,3.92,0,13.38,4.33,13.38,15.75Z"/>
      <path class="cls-7" d="m163.69,75.91c0,3.61-2.04,6.54-6.41,6.54s-6.16-2.68-6.16-6.29,1.79-6.79,6.16-6.79,6.41,2.93,6.41,6.54Z"/>
      <ellipse class="cls-8" cx="150.63" cy="58.33" rx="1.22" ry="3.94"/>
      <ellipse class="cls-8" cx="162.65" cy="58.33" rx="1.22" ry="3.94"/>
      <path class="cls-8" d="m157.41,64.72c-.27-.27-2.47-1.46-2.17-2.17.41-.98,3.95-1.02,4.24,0,.21.72-2.07,2.17-2.07,2.17Z"/>
      <path class="cls-10" d="m152.13,65.85s3.84,2.2,4.74,1.86c.2-.08.54-.66.54-.66v-2.33"/>
      <path class="cls-10" d="m157.41,67.04s.36.58.56.66c1.03.43,2.96-.6,2.96-.6"/>
      <path class="cls-4" d="m158.58,62.99c.48,0,.48-.75,0-.75s-.48.75,0,.75h0Z"/>
      <path class="cls-4" d="m151.04,56c.48,0,.48-.75,0-.75s-.48.75,0,.75h0Z"/>
      <path class="cls-4" d="m151.41,55.94s-.06.06-.09.09l.03-.02s-.09.06-.14.08l.04-.02s-.1.03-.15.04h.04s0,0-.01,0c-.04,0-.08.01-.11.04-.03.03-.05.07-.04.11s.01.08.04.11c.03.03.07.05.11.04.1-.01.19-.04.29-.09.08-.04.15-.1.21-.17.03-.03.04-.06.04-.11,0-.04-.02-.08-.04-.11s-.07-.05-.11-.04c-.04,0-.08.01-.11.04h0Z"/>
      <ellipse class="cls-1" cx="163.53" cy="64.08" rx="2.44" ry="1.49"/>
      <ellipse class="cls-1" cx="147.28" cy="63.78" rx="2.44" ry="1.49"/>
      <path class="cls-4" d="m163.01,55.91c.48,0,.48-.75,0-.75s-.48.75,0,.75h0Z"/>
      <path class="cls-4" d="m163.38,55.85s-.06.06-.09.09l.03-.02s-.09.06-.14.08l.04-.02s-.1.03-.15.04h.04s0,0-.01,0c-.04,0-.08.01-.11.04-.03.03-.05.07-.04.11s.01.08.04.11c.03.03.07.05.11.04.1-.01.19-.04.29-.09.08-.04.15-.1.21-.17.03-.03.04-.06.04-.11,0-.04-.02-.08-.04-.11s-.07-.05-.11-.04c-.04,0-.08.01-.11.04h0Z"/>
      <path class="cls-10" d="m148.47,71.68s7.86,6.02,7.29,6.79c-.24.32-8.52-3.14-8.52-3.14"/>
      <polyline class="cls-10" points="167.66 71.81 171.3 71.93 171.37 64.42 166.32 68.21"/>
      <line class="cls-6" x1="138.79" y1="95.85" x2="171.79" y2="86.85"/>
    </g>
  </g>
</svg>