<?xml version="1.0" encoding="UTF-8"?>
<svg id="_Слой_2" data-name="Слой 2" xmlns="http://www.w3.org/2000/svg" viewBox="0 0 140 171.63">
  <defs>
    <style>
      .cls-1, .cls-2 {
        stroke-width: 0px;
      }

      .cls-1, .cls-3 {
        fill: #ffbbf2;
      }

      .cls-4, .cls-3, .cls-5, .cls-6, .cls-7 {
        stroke: #000;
        stroke-miterlimit: 10;
      }

      .cls-4, .cls-3, .cls-7 {
        stroke-width: .25px;
      }

      .cls-2, .cls-6 {
        fill: #fff;
      }

      .cls-5, .cls-7 {
        fill: #45ddff;
      }
    </style>
  </defs>
  <g id="_Слой_14" data-name="Слой 14">
    <g>
      <ellipse class="cls-7" cx="86.6" cy="163.45" rx="11.1" ry="6.05"/>
      <ellipse class="cls-7" cx="40.03" cy="163.82" rx="14.08" ry="7.68"/>
      <path class="cls-5" d="m113.8,75.01c0,36.62,10.19,90.95-50.85,89.18C-6.01,162.19,7.34,109.6,7.34,75.01,7.34,33.18,42.16,12.37,60.57,12.37c15.61,0,53.23,17.21,53.23,62.64Z"/>
      <path class="cls-6" d="m93.56,127.23c0,14.36-8.1,26-25.5,26s-24.5-10.64-24.5-25,7.1-27,24.5-27,25.5,11.64,25.5,26Z"/>
      <path class="cls-5" d="m84.33,19.93s0-9.72,5.4-12.96c6.68-4.01,14.04-5.4,22.68,0,4.68,2.92,15.12,12.96,10.3,22.14-5.1,9.7-16.78,13.5-18.94,10.26-5.9-8.85-19.44-19.44-19.44-19.44Z"/>
      <path class="cls-5" d="m40.85,18.21s.67-8.92-4.32-12.76C30.36.71,23.21-1.52,14.01,2.85,9.02,5.21-2.5,13.98,1.23,23.65c3.95,10.22,18.46,12.62,19.38,11.4,6.48-8.64,20.24-16.84,20.24-16.84Z"/>
      <path class="cls-3" d="m90.81,25.33s-.14-10.21,2.16-11.88c3.94-2.86,16.17-2.52,19.44,1.08,2.39,2.63,3.95,10.97,2.16,14.04s-15.12,5.4-15.12,5.4"/>
      <path class="cls-3" d="m35.21,22.35s.25-9.35-1.89-11.23c-3.66-3.21-15.87-3.97-19.46-.68-2.61,2.4-4.92,10.57-3.42,13.79s13.41,6.49,13.41,6.49"/>
      <ellipse class="cls-4" cx="41.67" cy="56.11" rx="4.86" ry="15.66"/>
      <ellipse class="cls-4" cx="89.47" cy="56.11" rx="4.86" ry="15.66"/>
      <path class="cls-4" d="m68.62,81.5c-1.08-1.08-9.81-5.82-8.64-8.64,1.61-3.9,15.71-4.05,16.87,0,.82,2.87-8.23,8.64-8.23,8.64Z"/>
      <path class="cls-5" d="m47.62,86s15.28,8.76,18.84,7.38c.79-.31,2.16-2.63,2.16-2.63v-9.25"/>
      <path class="cls-5" d="m68.62,90.75s1.42,2.29,2.21,2.63c4.1,1.73,11.79-2.38,11.79-2.38"/>
      <path class="cls-2" d="m73.26,74.65c1.93,0,1.93-3,0-3s-1.93,3,0,3h0Z"/>
      <path class="cls-2" d="m43.28,46.84c1.93,0,1.93-3,0-3s-1.93,3,0,3h0Z"/>
      <path class="cls-2" d="m44.9,46.74c-.09.11-.19.21-.3.3,0,0-.05.04,0,0,.05-.04-.02.01-.02.01-.03.02-.05.04-.08.06-.06.04-.12.08-.19.11-.06.03-.12.06-.19.09-.05.02.07-.03.02,0-.02,0-.04.01-.06.02-.03.01-.06.02-.09.03-.07.02-.14.04-.21.06-.03,0-.06.01-.1.02-.02,0-.04,0-.06,0-.05,0,.1-.01.01,0-.1.01-.19.03-.27.11-.07.07-.11.17-.11.27,0,.18.17.4.38.38.69-.08,1.35-.4,1.8-.93.13-.15.16-.39,0-.53-.14-.13-.4-.16-.53,0h0Z"/>
      <ellipse class="cls-1" cx="92.97" cy="78.95" rx="9.72" ry="5.94"/>
      <ellipse class="cls-1" cx="28.33" cy="77.79" rx="9.72" ry="5.94"/>
      <path class="cls-2" d="m90.91,46.48c1.93,0,1.93-3,0-3s-1.93,3,0,3h0Z"/>
      <path class="cls-2" d="m92.53,46.38c-.09.11-.19.21-.3.3,0,0-.05.04,0,0,.05-.04-.02.01-.02.01-.03.02-.05.04-.08.06-.06.04-.12.08-.19.11-.06.03-.12.06-.19.09-.05.02.07-.03.02,0-.02,0-.04.01-.06.02-.03.01-.06.02-.09.03-.07.02-.14.04-.21.06-.03,0-.06.01-.1.02-.02,0-.04,0-.06,0-.05,0,.1-.01.01,0-.1.01-.19.03-.27.11-.07.07-.11.17-.11.27,0,.18.17.4.38.38.69-.08,1.35-.4,1.8-.93.13-.15.16-.39,0-.53-.14-.13-.4-.16-.53,0h0Z"/>
      <path class="cls-5" d="m104.58,103.69s36.3,15.3,34.87,18.8c-.61,1.49-35.93-3.56-35.93-3.56"/>
      <path class="cls-5" d="m36.79,114.82s39.3,2.8,39.61-.97c.13-1.61-33.65-13.09-33.65-13.09"/>
    </g>
  </g>
</svg>