<?xml version="1.0" encoding="UTF-8"?>
<svg id="_Слой_2" data-name="Слой 2" xmlns="http://www.w3.org/2000/svg" viewBox="0 0 167.61 227.35">
  <defs>
    <style>
      .cls-1, .cls-2 {
        fill: none;
      }

      .cls-1, .cls-2, .cls-3 {
        stroke: #000;
        stroke-miterlimit: 10;
      }

      .cls-4 {
        fill: #ffa300;
      }

      .cls-4, .cls-5, .cls-6, .cls-7 {
        stroke-width: 0px;
      }

      .cls-2 {
        stroke-linecap: round;
      }

      .cls-6 {
        fill: #fff;
      }

      .cls-3, .cls-7 {
        fill: #ff3c00;
      }
    </style>
  </defs>
  <g id="_Слой_7" data-name="Слой 7">
    <g>
      <polyline class="cls-1" points="119.82 111.88 121.51 103.24 121.1 94.25"/>
      <path class="cls-3" d="m8.18,70.46c-1.22,1.02-6.5,43.13-7.46,57.62-.71,10.79-.1,28.15,8.32,42.46,6.72,11.42,14.15,26.09,35.89,39,1.92,1.14,12.72,12.83,38.7,16.77,11,1.67,21.94.01,42.34-13.68,8.01-5.38,15.25-11.26,25.66-28.85,4.84-8.18,10.19-13.3,13.83-35.4,1.17-7.09,1.81-21.5,1.64-28.69-.23-9.69-4.01-38.57-4.01-38.57,0,0-42.46,14.91-41.98,13.12,2.55-9.35-6.45-35.31-6.45-35.31l-14.33-35.57s-30.04,24.98-37.41,35.57c-7.77,11.17-21.5,50.17-23.09,49.26-5.76-3.28-13.09-15.02-16.71-20.57-3.11-4.76-14.2-17.78-14.93-17.17Z"/>
      <path class="cls-4" d="m96.44,42.92s-17.13,23.91-21.76,32.53c-3.76,7-8.12,22.54-12.28,29.31-3.01,4.9-15.76,17.75-17.62,18.02-1.39.2-11.78-3.27-15.25-5.35-3.44-2.06-11.68-10.89-12.28-10.3s-2.27,12.93-2.21,17.29c.09,6.02,1.45,18.08,3,23.9,1.09,4.09,3.74,12.23,5.94,15.84,3.68,6.05,13.54,16.5,19.01,20.99,5.94,4.88,18.17,14.67,25.35,17.42,9.14,3.51,29.22,7.1,38.81,5.15,5.73-1.16,16.56-6.48,20.99-10.3,4.1-3.53,9.89-12.97,12.28-17.82,2.71-5.51,6.53-17.31,7.52-23.37,1.05-6.35.52-19.31.4-25.74-.07-3.67-.79-14.65-.79-14.65l.79-16.24s-14.87,6.06-18.24,10.03c-2.58,3.04-13.55,2.47-14.43,3.24-2.79,2.44-10.11-15.17-11.48-18.61-2.38-5.94-1.78-9.31-1.78-9.31l-1.58-18.61-1.98-18.61-2.4-4.81Z"/>
      <path class="cls-3" d="m133.29,62.01s-.2-15.7,1.38-20.42c1.51-4.51,8.84-12.97,13.07-11.09,1.54.68,9.11,3.96,1.81,16.21-2.86,4.8-16.26,15.31-16.26,15.31Z"/>
      <path class="cls-3" d="m98.83.6c-2.47-.75-8.26,3-8.71,5.54-.56,3.1,2.07,11.14,5.2,11.47,2.9.3,6.24-6.56,6.88-9.4.45-2.03-1.37-7.01-3.36-7.61Z"/>
      <path class="cls-3" d="m21.92,32.39c-3.12,1.49-.35,10.65,1.12,13.77,1.57,3.34,6.49,12.64,7.68,12.61.4,0,2.74-12.21,1.93-16.22-1.93-9.5-7.39-11.77-10.73-10.17Z"/>
      <path class="cls-7" d="m41.47,129.06c-1.95.29-2.54,5.57-2.32,7.52.24,2.11,2.74,5.87,4.24,7.38.2.2,3.66-4.83,3.56-6.73-.13-2.46-3.05-8.53-5.49-8.17Z"/>
      <path class="cls-7" d="m133.11,115.27c-1.82-.79-5.99,4.36-7.17,6.51-1.28,2.32-1.82,7.62-1.62,10.02.03.32,6.41-2.97,7.65-4.99,1.61-2.62,3.41-10.55,1.14-11.53Z"/>
      <path class="cls-5" d="m40.74,161.41l28.91-16.63,61.38-1.58s3.17,21.39-8.94,21.61c-17.65.33-19.18-16.07-19.18-16.07l-5.15.4s-1.58,17.03-12.67,17.03-15.44-16.24-15.44-16.24l-27.72,14.65-2.1-.9.91-2.27Z"/>
      <path class="cls-5" d="m115.99,184.58c0,2.13-2.51,4.05-9.11,4.55-1.21.09-4.64-.79-5.94-.79-.91,0-5.07.84-5.94.79-7.15-.38-9.5-2.31-9.5-4.55,0-2.52,7.02-3.76,15.44-3.76s15.05,1.25,15.05,3.76Z"/>
      <path class="cls-3" d="m141.92,187.75s-1.58,4.36,1.19,9.11c.49.84,5.76,4.98,5.94,5.94.19.98,2.57-2.95,4.48-5.21.47-.55.87-1.15,1.17-1.8,1.11-2.36,3.72-8.03,4.64-10.81,2.29-6.86-3.17-21.39-3.17-21.39"/>
      <path class="cls-3" d="m33.92,193.69s1.58,4.36-1.19,9.11c-.49.84-5.76,4.98-5.94,5.94-.19.98-2.57-2.95-4.48-5.21-.47-.55-.87-1.15-1.17-1.8-1.11-2.36-3.72-8.03-4.64-10.81-2.29-6.86,3.17-21.39,3.17-21.39"/>
      <ellipse class="cls-6" cx="126.58" cy="147.53" rx=".89" ry=".97"/>
      <ellipse class="cls-6" cx="91.33" cy="148.32" rx=".89" ry=".97"/>
      <path class="cls-6" d="m93.02,150.72c0,.77-2.07.4-3.17.4s-1.98-2.01-1.98-2.77,2,.41,2.77,1.19c.4.4,2.38.42,2.38,1.19Z"/>
      <path class="cls-6" d="m127.87,149.93c0,.77-2.07.4-3.17.4s-1.98-2.01-1.98-2.77,2,.41,2.77,1.19c.4.4,2.38.42,2.38,1.19Z"/>
      <path class="cls-2" d="m99.15,189.92s1.01-.57,1.39-.6c.56-.04,2.18.6,2.18.6"/>
    </g>
  </g>
</svg>